{"title":"The Swan Princess A Royal Family Tale 2014 TS HC Subs XviD Mp3-K","uid":9562006,"size":782417195,"categoryP":"video","categoryS":"movies","magnet":"?xt=urn:btih:1bfde154122fd55551c50b1ccf5ed7f76e4c194d&amp;dn=The+Swan+Princess+A+Royal+Family+Tale+2014+TS+HC+Subs+XviD+Mp3-K&amp;tr=udp%3A%2F%2Ftracker.openbittorrent.com%3A80&amp;tr=udp%3A%2F%2Fopen.demonii.com%3A1337&amp;tr=udp%3A%2F%2Ftracker.coppersurfer.tk%3A6969&amp;tr=udp%3A%2F%2Fexodus.desync.com%3A6969","seeders":0,"leechers":4,"uploader":"NewSky005","files":8,"time":1391448425,"description":" &lt;a href=&quot;http://en.wikipedia.org/wiki/The_Swan_Princess:_A_Royal_Family_Tale&quot; rel=&quot;nofollow&quot; target=&quot;_NEW&quot;&gt;http://en.wikipedia.org/wiki/The_Swan_Princess:_A_Royal_Family_Tale&lt;/a&gt;\nAnimation | PG\nHC Subs : Arabic\n\nGeneral\nComplete name                            : C:The Swan Princess A Royal Family Tale 2014 TS HC Subs XviD Mp3-KingStonerThe Swan Princess A Royal Family Tale 2014 TS HC Subs XviD Mp3-KingStoner.avi\nFormat                                   : AVI\nFormat/Info                              : Audio Video Interleave\nFile size                                : 746 MiB\nDuration                                 : 1h 19mn\nOverall bit rate                         : 1 304 Kbps\nWriting application                      : MEncoder SVN-r33883(20110719-gcc4.5.2)\nWriting library                          : MPlayer\n\nVideo\nID                                       : 0\nFormat                                   : MPEG-4 Visual\nFormat profile                           : Advanced Simple@L5\nFormat settings, BVOP                    : 2\nFormat settings, QPel                    : No\nFormat settings, GMC                     : No warppoints\nFormat settings, Matrix                  : Default (H.263)\nCodec ID                                 : XVID\nCodec ID/Hint                            : XviD\nDuration                                 : 1h 19mn\nBit rate                                 : 1 164 Kbps\nWidth                                    : 720 pixels\nHeight                                   : 450 pixels\nDisplay aspect ratio                     : 1.600\nFrame rate                               : 23.976 fps\nColor space                              : YUV\nChroma subsampling                       : 4:2:0\nBit depth                                : 8 bits\nScan type                                : Progressive\nCompression mode                         : Lossy\nBits/(Pixel*Frame)                       : 0.150\nStream size                              : 666 MiB (89%)\nWriting library                          : XviD 1.2.1 (UTC 2008-12-04)\n\nAudio\nID                                       : 1\nFormat                                   : MPEG Audio\nFormat version                           : Version 1\nFormat profile                           : Layer 3\nMode                                     : Joint stereo\nMode extension                           : MS Stereo\nCodec ID                                 : 55\nCodec ID/Hint                            : MP3\nDuration                                 : 1h 19mn\nBit rate mode                            : Constant\nBit rate                                 : 128 Kbps\nChannel(s)                               : 2 channels\nSampling rate                            : 44.1 KHz\nCompression mode                         : Lossy\nDelay relative to video                  : 42ms\nStream size                              : 73.2 MiB (10%)\nAlignment                                : Aligned on interleaves\nInterleave, duration                     : 26 ms (0.63 video frame)\nInterleave, preload duration             : 522 ms\n\n\n\nPlot\n\nIn an all-new adventure, Princess Odette and Derek set out along with their woodland friends, to find their adopted daughter Alise, who is kidnapped by a band of naughty squirrels. With friendship, teamwork, beautiful songs and plenty of laughs, this tale is a must-see for the whole family!\n","torrent":{"xt":"urn:btih:1bfde154122fd55551c50b1ccf5ed7f76e4c194d","amp;dn":"The+Swan+Princess+A+Royal+Family+Tale+2014+TS+HC+Subs+XviD+Mp3-K","amp;tr":["udp%3A%2F%2Ftracker.openbittorrent.com%3A80","udp%3A%2F%2Fopen.demonii.com%3A1337","udp%3A%2F%2Ftracker.coppersurfer.tk%3A6969","udp%3A%2F%2Fexodus.desync.com%3A6969"],"infoHash":"1bfde154122fd55551c50b1ccf5ed7f76e4c194d","infoHashBuffer":{"type":"Buffer","data":[27,253,225,84,18,47,213,85,81,197,11,28,207,94,215,247,110,76,25,77]},"announce":[],"urlList":[]}}